<svg version="1.1" preserveAspectRatio="none" xmlns="http://www.w3.org/2000/svg" width="500" height="500" viewBox="0 0 500 500"><rect width="100%" height="100%" fill="#2A3C47" fill-opacity="1"/><svg viewBox="316.55 216.1366 215.1382 144" width="333" height="222.8892869792533" x="83.5px" y="138.5554px" xmlns="http://www.w3.org/2000/svg" xmlns:xlink="http://www.w3.org/1999/xlink" preserveAspectRatio="none"><defs></defs><style>.aD-YM9nyY4color {fill:#EBE7D9;fill-opacity:1;}.aD6z1nYkhcolor {fill:#EBE7D9;fill-opacity:1;}.atBXipXk0bfillColor {fill:#0F222D;fill-opacity:0.88;}.icon3-str {stroke:#F55139;stroke-opacity:0.95;}.shapeStroke-str {stroke:#FFF5D0;stroke-opacity:1;}</style><g opacity="1" transform="rotate(0 333.55 216.1366)">
<svg width="198.1382" height="120" x="333.55" y="216.1366" version="1.1" preserveAspectRatio="none" viewBox="1.2 -27 114.92 69.6">
  <g transform="matrix(1 0 0 1 0 0)" class="aD6z1nYkhcolor"><path id="id-D6z1nYkh12" d="M2.20-6.52Q6.12-5.32 10.24-5.32L10.24-5.32Q12.32-5.32 13.80-5.56L13.80-5.56L13.80-9L10.16-9.32Q6.92-9.60 5.06-10.42Q3.20-11.24 2.38-12.78Q1.56-14.32 1.56-16.92L1.56-16.92Q1.56-20.16 2.46-22.04Q3.36-23.92 5.40-24.76Q7.44-25.60 10.96-25.60L10.96-25.60Q15.60-25.60 20.04-24.52L20.04-24.52L19.16-18.88Q17.12-19.28 15.62-19.46Q14.12-19.64 12.48-19.64L12.48-19.64Q10.44-19.64 9.12-19.44L9.12-19.44L9.12-16L12.40-15.72Q17.20-15.28 19.28-13.42Q21.36-11.56 21.36-7.68L21.36-7.68Q21.36-3.32 18.94-1.36Q16.52 0.60 11.08 0.60L11.08 0.60Q5.76 0.60 1.20-0.72L1.20-0.72L2.20-6.52Z M33.96-20.56Q38.56-20.56 40.64-18.98Q42.72-17.40 42.72-13.88L42.72-13.88L42.72 0L39.24 0L37.48-2Q34.44 0.56 30.60 0.56L30.60 0.56Q27.04 0.56 25.42-1.02Q23.80-2.60 23.80-6.04L23.80-6.04Q23.80-8.60 24.78-10Q25.76-11.40 28.08-12Q30.40-12.60 34.64-12.60L34.64-12.60L35.68-12.60L35.68-15.12Q34.84-15.36 33.20-15.36L33.20-15.36Q29.60-15.36 25.56-14.32L25.56-14.32L24.72-19.24Q28.88-20.56 33.96-20.56L33.96-20.56ZM32.84-4.28Q34.48-4.28 35.08-4.64Q35.68-5 35.68-6L35.68-6L35.68-8.92L33.16-8.92Q31.52-8.92 30.90-8.54Q30.28-8.16 30.28-7.12L30.28-7.12L30.28-4.28L32.84-4.28Z M59.08-22.24L55.56-22.56L55.56-20L58.16-20L58.16-15.40L55.56-15.40L55.56 0L48.52 0L48.52-15.40L46.32-15.40L46.32-20L48.52-20Q48.64-22.68 49.30-24.18Q49.96-25.68 51.38-26.34Q52.80-27 55.24-27L55.24-27Q57.12-27 59.48-26.60L59.48-26.60L59.08-22.24Z M71.16-4.64Q74.56-4.64 78.24-5.68L78.24-5.68L79.12-0.76Q75.16 0.56 70.40 0.56L70.40 0.56Q65.12 0.56 62.80-1.90Q60.48-4.36 60.48-10L60.48-10Q60.48-15.60 62.86-18.08Q65.24-20.56 70.56-20.56L70.56-20.56Q74.12-20.56 76.06-19.96Q78-19.36 78.82-17.96Q79.64-16.56 79.64-13.96L79.64-13.96Q79.64-11.40 78.60-10Q77.56-8.60 75.08-8Q72.60-7.40 68.04-7.40L68.04-7.40L68.04-4.88Q69.16-4.64 71.16-4.64L71.16-4.64ZM70.92-15.36Q69.28-15.36 68.66-15Q68.04-14.64 68.04-13.64L68.04-13.64L68.04-11.08L70.40-11.08Q72.04-11.08 72.66-11.46Q73.28-11.84 73.28-12.88L73.28-12.88L73.28-15.36L70.92-15.36Z M94.80-15.40L91.84-15.40L91.84-5.04Q93.12-4.84 94.32-4.80L94.32-4.80L94-0.04Q91.32 0.56 89.44 0.56L89.44 0.56Q87.08 0.56 85.94-0.42Q84.80-1.40 84.80-3.48L84.80-3.48L84.80-15.40L82.60-15.40L82.60-20L84.80-20L84.80-23.44L91.84-25.20L91.84-20L94.80-20L94.80-15.40Z M109.24-20L116.12-20L111.44-1.80L111.40-1.80Q110.56 1.60 109.32 3.54Q108.08 5.48 106.14 6.32Q104.20 7.16 101.16 7.16L101.16 7.16Q98.76 7.16 96.68 6.56L96.68 6.56L97 2.84L101.32 2.32Q102.52 2.16 103.16 1.84Q103.80 1.52 104.14 0.84Q104.48 0.16 104.76-1.20L104.76-1.20L104.92-1.80L100.84-1.80L96.16-20L103.04-20L105.92-7.96L106.32-7.96L109.24-20Z M1.20 17L8.24 17L12.72 35.28L13.08 35.28L17.56 17L24.60 17L18.36 42L7.44 42L1.20 17Z M26.92 42L26.92 42ZM27.24 22.84L34.28 21.92L34.28 42L27.24 42L27.24 22.84ZM30.72 19.88Q29.20 19.88 28.40 19.56Q27.60 19.24 27.26 18.44Q26.92 17.64 26.92 16.12L26.92 16.12Q26.92 13.92 27.72 13.10Q28.52 12.28 30.72 12.28L30.72 12.28Q32.92 12.28 33.72 13.10Q34.52 13.92 34.52 16.12L34.52 16.12Q34.52 18.32 33.72 19.10Q32.92 19.88 30.72 19.88L30.72 19.88Z M38.16 27.96Q38.16 24.56 40.24 22.98Q42.32 21.40 46.76 21.40L46.76 21.40Q51.04 21.40 54.92 22.28L54.92 22.28L54.08 27.16Q52.16 26.64 49.36 26.64L49.36 26.64Q47.24 26.64 45.72 27L45.72 27L45.72 29.24Q49.68 29.68 51.86 30.44Q54.04 31.20 54.98 32.50Q55.92 33.80 55.92 35.92L55.92 35.92Q55.92 39.44 53.62 41.02Q51.32 42.60 46.24 42.60L46.24 42.60Q44.04 42.60 41.84 42.26Q39.64 41.92 37.84 41.28L37.84 41.28L38.76 36.16Q41.72 37.36 45.20 37.36L45.20 37.36Q46.44 37.36 48.36 37L48.36 37L48.36 34.68Q44.12 34.20 41.98 33.50Q39.84 32.80 39 31.54Q38.16 30.28 38.16 27.96L38.16 27.96Z M59.16 42L59.16 42ZM59.48 22.84L66.52 21.92L66.52 42L59.48 42L59.48 22.84ZM62.96 19.88Q61.44 19.88 60.64 19.56Q59.84 19.24 59.50 18.44Q59.16 17.64 59.16 16.12L59.16 16.12Q59.16 13.92 59.96 13.10Q60.76 12.28 62.96 12.28L62.96 12.28Q65.16 12.28 65.96 13.10Q66.76 13.92 66.76 16.12L66.76 16.12Q66.76 18.32 65.96 19.10Q65.16 19.88 62.96 19.88L62.96 19.88Z M80.48 42.56Q76.84 42.56 74.64 41.48Q72.44 40.40 71.40 38.10Q70.36 35.80 70.36 32L70.36 32Q70.36 28.20 71.40 25.88Q72.44 23.56 74.64 22.50Q76.84 21.44 80.48 21.44L80.48 21.44Q84.16 21.44 86.38 22.50Q88.60 23.56 89.62 25.88Q90.64 28.20 90.64 32L90.64 32Q90.64 35.80 89.60 38.10Q88.56 40.40 86.34 41.48Q84.12 42.56 80.48 42.56L80.48 42.56ZM77.92 37.20L81.48 37.20Q82.44 37.20 82.78 36.98Q83.12 36.76 83.12 36.12L83.12 36.12L83.12 26.80L79.56 26.80Q78.60 26.80 78.26 27.02Q77.92 27.24 77.92 27.88L77.92 27.88L77.92 37.20Z M94.52 42L94.52 22L98.00 22L99.80 24Q103.12 21.44 107.64 21.44L107.64 21.44Q110.44 21.44 112.00 22.58Q113.56 23.72 113.56 25.76L113.56 25.76L113.56 42L106.52 42L106.52 27.24L103.56 27.24Q102.44 27.24 102.00 27.56Q101.56 27.88 101.56 28.64L101.56 28.64L101.56 42L94.52 42Z"/></g>
</svg>
</g><g opacity="1" transform="rotate(0 316.55 216.1366)">
<svg width="3" height="144" x="316.55" y="216.1366" version="1.1" preserveAspectRatio="none" viewBox="0 0 3 144">
  <defs><rect x="0" y="0" width="3" height="144" rx="0px" ry="0px" id="id-tBXipXk0b1767742915412"></rect></defs><use class="atBXipXk0bfillColor shapeStroke-str" style="stroke-width:0;" xlink:href="#id-tBXipXk0b1767742915412"></use>
</svg>
</g><g opacity="1" transform="rotate(0 333.55 352.1366)">
<svg width="76.7713" height="8" x="333.55" y="352.1366" version="1.1" preserveAspectRatio="none" viewBox="0.293 -30.8008 383.85389999999995 40">
  <g transform="matrix(1 0 0 1 0 0)" class="aD-YM9nyY4color"><path id="id-D-YM9nyY418" d="M21.02-21.84L21.09-22.21Q21.33-23.24 21.01-24.04Q20.68-24.84 19.98-25.40Q19.28-25.96 18.28-26.24Q17.29-26.52 16.17-26.52L16.17-26.52Q14.55-26.52 13.27-26.09Q11.99-25.66 11.11-24.92Q10.23-24.18 9.77-23.19Q9.30-22.21 9.30-21.11L9.30-21.11Q9.30-20.14 9.67-19.53Q10.04-18.93 10.61-18.54Q11.17-18.14 11.87-17.91Q12.56-17.68 13.20-17.44L13.20-17.44L16.86-16.11Q18.26-15.64 19.32-15Q20.37-14.36 21.07-13.51Q21.78-12.66 22.13-11.57Q22.48-10.49 22.48-9.12L22.48-9.12Q22.48-6.95 21.64-5.16Q20.80-3.36 19.29-2.08Q17.77-0.80 15.64-0.10Q13.52 0.61 10.94 0.61L10.94 0.61Q8.61 0.61 7.00 0.11Q5.39-0.39 4.36-1.24Q3.32-2.09 2.80-3.18Q2.29-4.28 2.15-5.49L2.15-5.49L0.29-5.49L1.05-8.59L6.37-8.59L6.02-7.15Q5.74-5.04 7.25-4.00Q8.75-2.97 11.60-2.97L11.60-2.97Q13.07-2.97 14.30-3.38Q15.53-3.79 16.42-4.52Q17.30-5.25 17.81-6.28Q18.32-7.30 18.32-8.52L18.32-8.52Q18.32-9.45 17.99-10.14Q17.66-10.82 17.08-11.32Q16.50-11.82 15.73-12.18Q14.96-12.54 14.08-12.83L14.08-12.83L10.68-13.93Q8.03-14.77 6.66-16.43Q5.29-18.09 5.29-20.68L5.29-20.68Q5.29-22.68 6.05-24.38Q6.82-26.09 8.27-27.35Q9.73-28.61 11.81-29.33Q13.89-30.04 16.52-30.04L16.52-30.04Q18.18-30.04 19.57-29.67Q20.96-29.30 22.02-28.63Q23.09-27.97 23.82-27.03Q24.55-26.09 24.88-24.96L24.88-24.96L26.86-24.96L26.09-21.84L21.02-21.84Z M40.76 0L41.07-1.37Q39.76-0.49 38.45-0.07Q37.13 0.35 35.72 0.35L35.72 0.35Q34.06 0.35 32.62-0.29Q31.17-0.94 30.11-2.05Q29.04-3.16 28.43-4.68Q27.81-6.19 27.81-7.93L27.81-7.93Q27.81-10.76 28.81-13.13Q29.80-15.49 31.51-17.19Q33.22-18.89 35.50-19.82Q37.77-20.76 40.33-20.76L40.33-20.76Q41.80-20.76 43.09-20.32Q44.37-19.88 45.19-19.18L45.19-19.18L45.45-20.23L49.37-20.23L45.47-3.36L48.61-3.36L47.85 0L40.76 0ZM36.64-3.01L36.64-3.01Q37.36-3.01 38.11-3.18Q38.87-3.36 39.55-3.63Q40.23-3.91 40.84-4.27Q41.44-4.63 41.91-5.02L41.91-5.02L44.43-15.84Q43.92-16.48 42.85-16.94Q41.78-17.40 40.04-17.40L40.04-17.40Q38.53-17.40 37.07-16.79Q35.60-16.17 34.45-15.01Q33.30-13.85 32.58-12.16Q31.85-10.47 31.85-8.32L31.85-8.32Q31.85-7.07 32.21-6.08Q32.56-5.10 33.18-4.41Q33.81-3.73 34.70-3.37Q35.59-3.01 36.64-3.01Z M54.80-16.88L55.60-20.23L59.74-20.23L60.56-23.81Q60.99-25.68 61.78-27.01Q62.56-28.34 63.62-29.18Q64.69-30.02 66.01-30.41Q67.34-30.80 68.89-30.80L68.89-30.80Q69.82-30.80 70.61-30.68Q71.40-30.57 72.05-30.39Q72.69-30.21 73.20-30.01Q73.71-29.80 74.06-29.61L74.06-29.61L72.05-26.60Q71.54-26.93 70.65-27.19Q69.76-27.44 68.73-27.44L68.73-27.44Q67.17-27.44 66.07-26.57Q64.98-25.70 64.49-23.59L64.49-23.59L63.71-20.23L69.22-20.23L68.42-16.88L62.95-16.88L56.97 9.20L53.01 9.20L58.96-16.88L54.80-16.88Z M90.72-9.43L75.17-9.43Q75.15-9.16 75.13-8.96Q75.11-8.77 75.11-8.59L75.11-8.59Q75.11-7.36 75.52-6.31Q75.92-5.25 76.63-4.48Q77.34-3.71 78.33-3.27Q79.31-2.83 80.49-2.83L80.49-2.83Q82.05-2.83 83.46-3.47Q84.88-4.10 85.84-5.31L85.84-5.31L88.73-3.20Q88.06-2.32 87.15-1.62Q86.23-0.92 85.11-0.42Q84.00 0.08 82.74 0.34Q81.48 0.61 80.17 0.61L80.17 0.61Q78.30 0.61 76.67-0.02Q75.04-0.64 73.82-1.84Q72.60-3.03 71.90-4.76Q71.21-6.48 71.21-8.67L71.21-8.67Q71.21-11.19 72.10-13.41Q72.99-15.63 74.56-17.28Q76.13-18.93 78.28-19.88Q80.43-20.84 82.93-20.84L82.93-20.84Q84.86-20.84 86.37-20.19Q87.89-19.53 88.94-18.46Q90.00-17.38 90.54-15.98Q91.09-14.57 91.09-13.09L91.09-13.09Q91.09-12.09 90.98-11.16Q90.88-10.23 90.72-9.43L90.72-9.43ZM82.40-17.52L82.40-17.52Q81.23-17.52 80.20-17.15Q79.18-16.78 78.34-16.11Q77.50-15.45 76.85-14.55Q76.21-13.65 75.80-12.60L75.80-12.60L87.32-12.60Q87.34-13.81 87.00-14.74Q86.66-15.66 86.00-16.28Q85.35-16.89 84.43-17.21Q83.51-17.52 82.40-17.52Z M95.47-16.88L96.27-20.23L99.65-20.23L100.84-25.08L104.96-26.76L103.41-20.23L107.67-20.23L106.87-16.88L102.61-16.88L100.04-5.96Q99.94-5.57 99.85-5.17Q99.76-4.77 99.76-4.32L99.76-4.32Q99.76-3.44 100.24-3.08Q100.72-2.71 101.75-2.71L101.75-2.71Q102.87-2.71 104.43-3.36L104.43-3.36L104.76-0.57Q103.73-0.08 102.77 0.21Q101.81 0.49 100.64 0.49L100.64 0.49Q99.41 0.49 98.40 0.19Q97.38-0.12 96.72-0.81Q96.05-1.50 95.84-2.63Q95.62-3.75 95.99-5.39L95.99-5.39L98.81-16.88L95.47-16.88Z M110.72-16.88L111.52-20.23L118.92-20.23L118.12-16.88L116.58-16.88L117.77-4.39L125.74-16.88L124.08-16.88L124.88-20.23L132.28-20.23L131.48-16.88L129.78-16.88L115.31 5.84L117.28 5.84L116.44 9.20L108.43 9.20L109.27 5.84L111.25 5.84L114.86 0.18L112.63-16.88L110.72-16.88Z M163.20-21.84L163.28-22.21Q163.51-23.24 163.19-24.04Q162.87-24.84 162.16-25.40Q161.46-25.96 160.46-26.24Q159.47-26.52 158.35-26.52L158.35-26.52Q156.73-26.52 155.45-26.09Q154.17-25.66 153.30-24.92Q152.42-24.18 151.95-23.19Q151.48-22.21 151.48-21.11L151.48-21.11Q151.48-20.14 151.85-19.53Q152.22-18.93 152.79-18.54Q153.35-18.14 154.05-17.91Q154.74-17.68 155.39-17.44L155.39-17.44L159.04-16.11Q160.44-15.64 161.50-15Q162.55-14.36 163.26-13.51Q163.96-12.66 164.31-11.57Q164.66-10.49 164.66-9.12L164.66-9.12Q164.66-6.95 163.82-5.16Q162.98-3.36 161.47-2.08Q159.96-0.80 157.83-0.10Q155.70 0.61 153.12 0.61L153.12 0.61Q150.80 0.61 149.18 0.11Q147.57-0.39 146.54-1.24Q145.50-2.09 144.98-3.18Q144.47-4.28 144.33-5.49L144.33-5.49L142.48-5.49L143.24-8.59L148.55-8.59L148.20-7.15Q147.92-5.04 149.43-4.00Q150.93-2.97 153.78-2.97L153.78-2.97Q155.25-2.97 156.48-3.38Q157.71-3.79 158.60-4.52Q159.49-5.25 159.99-6.28Q160.50-7.30 160.50-8.52L160.50-8.52Q160.50-9.45 160.17-10.14Q159.84-10.82 159.26-11.32Q158.69-11.82 157.91-12.18Q157.14-12.54 156.26-12.83L156.26-12.83L152.87-13.93Q150.21-14.77 148.84-16.43Q147.48-18.09 147.48-20.68L147.48-20.68Q147.48-22.68 148.24-24.38Q149.00-26.09 150.45-27.35Q151.91-28.61 153.99-29.33Q156.07-30.04 158.71-30.04L158.71-30.04Q160.37-30.04 161.75-29.67Q163.14-29.30 164.20-28.63Q165.27-27.97 166.00-27.03Q166.73-26.09 167.06-24.96L167.06-24.96L169.04-24.96L168.28-21.84L163.20-21.84Z M170.78-16.88L171.58-20.23L174.95-20.23L176.15-25.08L180.27-26.76L178.72-20.23L182.98-20.23L182.18-16.88L177.92-16.88L175.35-5.96Q175.25-5.57 175.16-5.17Q175.07-4.77 175.07-4.32L175.07-4.32Q175.07-3.44 175.55-3.08Q176.03-2.71 177.06-2.71L177.06-2.71Q178.18-2.71 179.74-3.36L179.74-3.36L180.07-0.57Q179.04-0.08 178.08 0.21Q177.12 0.49 175.95 0.49L175.95 0.49Q174.72 0.49 173.70 0.19Q172.69-0.12 172.03-0.81Q171.36-1.50 171.15-2.63Q170.93-3.75 171.30-5.39L171.30-5.39L174.11-16.88L170.78-16.88Z M198.94 0L199.25-1.37Q197.94-0.49 196.62-0.07Q195.31 0.35 193.90 0.35L193.90 0.35Q192.24 0.35 190.79-0.29Q189.35-0.94 188.28-2.05Q187.22-3.16 186.60-4.68Q185.99-6.19 185.99-7.93L185.99-7.93Q185.99-10.76 186.99-13.13Q187.98-15.49 189.69-17.19Q191.40-18.89 193.67-19.82Q195.95-20.76 198.51-20.76L198.51-20.76Q199.97-20.76 201.26-20.32Q202.55-19.88 203.37-19.18L203.37-19.18L203.63-20.23L207.55-20.23L203.65-3.36L206.79-3.36L206.03 0L198.94 0ZM194.82-3.01L194.82-3.01Q195.54-3.01 196.29-3.18Q197.04-3.36 197.73-3.63Q198.41-3.91 199.02-4.27Q199.62-4.63 200.09-5.02L200.09-5.02L202.61-15.84Q202.10-16.48 201.03-16.94Q199.95-17.40 198.22-17.40L198.22-17.40Q196.71-17.40 195.25-16.79Q193.78-16.17 192.63-15.01Q191.48-13.85 190.75-12.16Q190.03-10.47 190.03-8.32L190.03-8.32Q190.03-7.07 190.38-6.08Q190.74-5.10 191.36-4.41Q191.99-3.73 192.87-3.37Q193.76-3.01 194.82-3.01Z M230.50-20.12L229.21-14.65L225.25-14.65L225.81-17.03Q223.92-17.03 222.59-16.06Q221.26-15.10 220.40-13.52L220.40-13.52L218.06-3.36L221.42-3.36L220.66 0L213.33 0L217.24-16.88L213.37-16.88L214.17-20.23L221.81-20.23L221.16-17.46Q221.71-18.09 222.34-18.62Q222.96-19.16 223.65-19.55Q224.35-19.94 225.10-20.17Q225.85-20.39 226.61-20.39L226.61-20.39Q227.32-20.39 227.82-20.37Q228.33-20.35 228.91-20.30Q229.48-20.25 230.50-20.12L230.50-20.12Z M234.70-16.88L235.50-20.23L238.88-20.23L240.07-25.08L244.19-26.76L242.65-20.23L246.91-20.23L246.10-16.88L241.85-16.88L239.27-5.96Q239.17-5.57 239.08-5.17Q239.00-4.77 239.00-4.32L239.00-4.32Q239.00-3.44 239.47-3.08Q239.95-2.71 240.99-2.71L240.99-2.71Q242.10-2.71 243.66-3.36L243.66-3.36L244.00-0.57Q242.96-0.08 242.00 0.21Q241.05 0.49 239.87 0.49L239.87 0.49Q238.64 0.49 237.63 0.19Q236.61-0.12 235.95-0.81Q235.28-1.50 235.07-2.63Q234.85-3.75 235.23-5.39L235.23-5.39L238.04-16.88L234.70-16.88Z M262.49-14.61L262.49-14.61Q262.47-15.37 262.19-15.96Q261.90-16.54 261.41-16.94Q260.91-17.34 260.23-17.55Q259.56-17.75 258.78-17.75L258.78-17.75Q258.00-17.75 257.30-17.57Q256.59-17.38 256.06-17.01Q255.54-16.64 255.23-16.11Q254.93-15.59 254.93-14.92L254.93-14.92Q254.93-14.14 255.43-13.62Q255.93-13.11 257.00-12.68L257.00-12.68L260.77-11.33Q262.49-10.70 263.39-9.38Q264.29-8.07 264.29-6.19L264.29-6.19Q264.29-4.51 263.67-3.24Q263.06-1.97 261.96-1.11Q260.87-0.25 259.36 0.18Q257.84 0.61 256.05 0.61L256.05 0.61Q254.95 0.61 253.96 0.43Q252.96 0.25 252.11-0.11Q251.26-0.47 250.63-1.01Q249.99-1.54 249.64-2.25L249.64-2.25L247.57-2.25L248.37-5.61L252.49-5.61Q252.39-4.84 252.69-4.26Q252.98-3.67 253.53-3.27Q254.07-2.87 254.82-2.68Q255.58-2.48 256.42-2.48L256.42-2.48Q257.26-2.48 257.99-2.70Q258.72-2.91 259.27-3.32Q259.81-3.73 260.14-4.34Q260.46-4.94 260.46-5.72L260.46-5.72Q260.46-6.46 259.93-7.08Q259.40-7.70 258.29-8.09L258.29-8.09L254.70-9.39Q252.96-10.08 252.02-11.40Q251.08-12.71 251.08-14.36L251.08-14.36Q251.08-15.80 251.59-16.99Q252.10-18.18 253.10-19.04Q254.09-19.90 255.60-20.37Q257.10-20.84 259.09-20.84L259.09-20.84Q260.24-20.84 261.22-20.62Q262.20-20.39 262.96-20Q263.72-19.61 264.27-19.09Q264.81-18.57 265.15-17.97L265.15-17.97L267.33-17.97L266.53-14.61L262.49-14.61Z M306.45-26.23L307.25-29.61L316.86-29.61L316.06-26.23L313.39-26.23L308.15-3.36L311.06-3.36L310.30 0L300.69 0L301.45-3.36L304.07-3.36L306.53-14.00L289.79-14.00L287.35-3.36L290.26-3.36L289.50 0L279.89 0L280.65-3.36L283.27-3.36L288.54-26.23L285.65-26.23L286.45-29.61L296.06-29.61L295.26-26.23L292.59-26.23L290.54-17.29L307.29-17.29L309.34-26.23L306.45-26.23Z M338.74-9.43L323.19-9.43Q323.17-9.16 323.15-8.96Q323.13-8.77 323.13-8.59L323.13-8.59Q323.13-7.36 323.53-6.31Q323.93-5.25 324.65-4.48Q325.36-3.71 326.35-3.27Q327.33-2.83 328.50-2.83L328.50-2.83Q330.07-2.83 331.48-3.47Q332.90-4.10 333.86-5.31L333.86-5.31L336.75-3.20Q336.08-2.32 335.16-1.62Q334.25-0.92 333.13-0.42Q332.02 0.08 330.76 0.34Q329.50 0.61 328.19 0.61L328.19 0.61Q326.32 0.61 324.69-0.02Q323.05-0.64 321.83-1.84Q320.61-3.03 319.92-4.76Q319.23-6.48 319.23-8.67L319.23-8.67Q319.23-11.19 320.12-13.41Q321.00-15.63 322.58-17.28Q324.15-18.93 326.30-19.88Q328.45-20.84 330.95-20.84L330.95-20.84Q332.88-20.84 334.39-20.19Q335.91-19.53 336.96-18.46Q338.02-17.38 338.56-15.98Q339.11-14.57 339.11-13.09L339.11-13.09Q339.11-12.09 339.00-11.16Q338.89-10.23 338.74-9.43L338.74-9.43ZM330.42-17.52L330.42-17.52Q329.25-17.52 328.22-17.15Q327.20-16.78 326.36-16.11Q325.52-15.45 324.87-14.55Q324.23-13.65 323.82-12.60L323.82-12.60L335.34-12.60Q335.36-13.81 335.02-14.74Q334.68-15.66 334.02-16.28Q333.37-16.89 332.45-17.21Q331.53-17.52 330.42-17.52Z M360.65-20.12L359.36-14.65L355.40-14.65L355.96-17.03Q354.07-17.03 352.74-16.06Q351.41-15.10 350.55-13.52L350.55-13.52L348.21-3.36L351.57-3.36L350.81 0L343.48 0L347.39-16.88L343.52-16.88L344.32-20.23L351.96-20.23L351.32-17.46Q351.86-18.09 352.49-18.62Q353.11-19.16 353.81-19.55Q354.50-19.94 355.25-20.17Q356.00-20.39 356.76-20.39L356.76-20.39Q357.47-20.39 357.98-20.37Q358.48-20.35 359.06-20.30Q359.64-20.25 360.65-20.12L360.65-20.12Z M383.78-9.43L368.23-9.43Q368.21-9.16 368.19-8.96Q368.17-8.77 368.17-8.59L368.17-8.59Q368.17-7.36 368.57-6.31Q368.97-5.25 369.68-4.48Q370.40-3.71 371.38-3.27Q372.37-2.83 373.54-2.83L373.54-2.83Q375.10-2.83 376.52-3.47Q377.94-4.10 378.89-5.31L378.89-5.31L381.78-3.20Q381.12-2.32 380.20-1.62Q379.28-0.92 378.17-0.42Q377.06 0.08 375.80 0.34Q374.54 0.61 373.23 0.61L373.23 0.61Q371.35 0.61 369.72-0.02Q368.09-0.64 366.87-1.84Q365.65-3.03 364.96-4.76Q364.26-6.48 364.26-8.67L364.26-8.67Q364.26-11.19 365.15-13.41Q366.04-15.63 367.61-17.28Q369.19-18.93 371.33-19.88Q373.48-20.84 375.98-20.84L375.98-20.84Q377.92-20.84 379.43-20.19Q380.94-19.53 382.00-18.46Q383.05-17.38 383.60-15.98Q384.15-14.57 384.15-13.09L384.15-13.09Q384.15-12.09 384.04-11.16Q383.93-10.23 383.78-9.43L383.78-9.43ZM375.46-17.52L375.46-17.52Q374.28-17.52 373.26-17.15Q372.23-16.78 371.39-16.11Q370.55-15.45 369.91-14.55Q369.26-13.65 368.85-12.60L368.85-12.60L380.38-12.60Q380.40-13.81 380.06-14.74Q379.71-15.66 379.06-16.28Q378.40-16.89 377.49-17.21Q376.57-17.52 375.46-17.52Z"/></g>
</svg>
</g></svg></svg>