<svg version="1.1" preserveAspectRatio="none" xmlns="http://www.w3.org/2000/svg" width="500" height="500" viewBox="0 0 500 500"><rect width="100%" height="100%" fill="#2A3C47" fill-opacity="1"/><svg viewBox="-44.2495 165.9201 593.5948 127.6" width="333" height="71.58216345560979" x="83.5px" y="214.2089px" xmlns="http://www.w3.org/2000/svg" xmlns:xlink="http://www.w3.org/1999/xlink" preserveAspectRatio="none"><defs></defs><style>.aD6z1nYkhcolor {fill:#FFF5D0;fill-opacity:1;}.aIptOCySncolors-3 {fill:#51819E;fill-opacity:1;}.aIptOCySncolors-4 {fill:#064B75;fill-opacity:1;}.aIptOCySncolors-5 {fill:#ACA58C;fill-opacity:1;}.aIptOCySncolors-6 {fill:#3E5563;fill-opacity:1;}.aIptOCySncolors-7 {fill:#BA3521;fill-opacity:1;}.icon1 {fill:#EBE7D9;fill-opacity:1;}.icon2 {fill:#F55139;fill-opacity:1;}.icon3 {fill:#21303A;fill-opacity:1;}.icon3-str {stroke:#21303A;stroke-opacity:1;}.text {fill:#FFF5D0;fill-opacity:1;}</style><g opacity="1" transform="rotate(0 -44.2495 165.9201)">
<svg width="186.0056" height="127.6" x="-44.2495" y="165.9201" version="1.1" preserveAspectRatio="none" viewBox="4.992928504943848 19.12888526916504 90.0030746459961 61.742164611816406">
  <g transform="matrix(1 0 0 1 0 0)" class="icon1"><path d="m94.996 49.109c-0.027344-1.2539-0.97656-2.2891-2.2109-2.4141-2.4531-0.25781-4.6367-1.5938-5.9844-3.6602-0.46484-0.71094-1.2148-1.1211-2.0625-1.1211h-4.8164c-3.6016-6.6641-9.2617-12.125-16.051-15.484l0.11719-0.94141c0.20703-1.668-0.74219-3.2422-2.3203-3.832-4.5-1.6797-9.2305-2.5273-14.066-2.5273-4.8359 0-9.5664 0.85156-14.066 2.5273-1.5742 0.58984-2.5273 2.1641-2.3164 3.8281l0.11719 0.94531c-11.75 5.8125-19.484 17.367-20.367 30.445l-5.3203 2.2578c-0.39844 0.16797-0.65625 0.55859-0.65625 0.98828v6.1367c0 0.59375 0.48047 1.0742 1.0742 1.0742h53.113c2.8008 5.8203 7.293 10.148 13.461 12.934 0.89062 0.40234 1.8047 0.60547 2.7188 0.60547s1.8281-0.20312 2.7188-0.60547c11.449-5.168 17.141-15.648 16.91-31.16zm-31.402-20.41c5.7461 3.0078 10.586 7.6211 13.863 13.215h-11.465c-0.84766 0-1.5977 0.40625-2.0586 1.1172-0.63672 0.97656-1.4609 1.7852-2.4102 2.4023l2.0742-16.734zm-56.445 36.484v-4.3516l5.2773-2.2383c0.37891-0.16016 0.63281-0.52344 0.65234-0.9375 0.60938-12.32 7.668-23.285 18.543-28.957l2.8984 23.367c0.066407 0.54688 0.53125 0.94141 1.0664 0.94141 0.042968 0 0.089843-0.003906 0.13281-0.007812 0.58984-0.074219 1.0078-0.60938 0.93359-1.1992l-3.0781-24.832c-0.003907-0.027344-0.007813-0.058594-0.011719-0.085938l-0.20703-1.6641c-0.085938-0.68359 0.28906-1.3086 0.9375-1.5508 4.2578-1.5898 8.7383-2.3945 13.312-2.3945s9.0547 0.80469 13.312 2.3945c0.64453 0.24219 1.0234 0.86328 0.9375 1.5508l-2.6328 21.234c-0.41406 0.11328-0.84375 0.19141-1.2773 0.23828-1.2422 0.125-2.1953 1.168-2.2148 2.4219-0.089844 6.1523 0.75391 11.516 2.5195 16.066zm70.051 13.125c-1.2148 0.55078-2.4453 0.55078-3.6602 0h-0.003906c-5.8789-2.6523-10.066-6.7109-12.625-12.258-0.03125-0.17188-0.10547-0.32422-0.21094-0.45703-1.9766-4.5078-2.9062-9.9766-2.8086-16.445 0.003906-0.16406 0.12109-0.29688 0.28125-0.3125 3.1016-0.32813 5.8555-2.0117 7.5625-4.6289 0.066406-0.10156 0.13672-0.14062 0.25781-0.14062h13.285 0.003906 0.003906 5.457c0.11719 0 0.19141 0.039063 0.25781 0.14453 1.7031 2.6133 4.4609 4.3008 7.5664 4.6289 0.15625 0.015625 0.27344 0.15234 0.27734 0.3125 0.21875 14.77-4.8984 24.309-15.648 29.16z"></path><path d="m21.457 56.602c-0.59375 0-1.0742 0.48438-1.0742 1.0781s0.47656 1.0742 1.0742 1.0742h33.191c-0.12109-0.70703-0.23047-1.4258-0.32031-2.1523z"></path><path d="m82.672 53.594c-0.47266-0.35938-1.1484-0.26562-1.5078 0.20703l-7.9688 10.496-3.8945-2.5703c-0.49609-0.32812-1.1641-0.19141-1.4883 0.30469-0.32812 0.49609-0.19141 1.1641 0.30469 1.4883l4.7344 3.1289c0.18359 0.12109 0.38672 0.17969 0.59375 0.17969 0.32422 0 0.64844-0.14844 0.85547-0.42578l8.5781-11.301c0.35938-0.47266 0.26562-1.1484-0.20703-1.5078z"></path></g>
</svg>
</g><g opacity="1" transform="rotate(0 161.7561 256.9201)">
<svg width="240.6355" height="21.6" x="161.7561" y="256.9201" version="1.1" preserveAspectRatio="none" viewBox="1.88 -29.88 421.56 37.84">
  <g transform="matrix(1 0 0 1 0 0)" class="text"><path id="id-6izo4zJp18" d="M12.28 0.24Q9.16 0.24 6.30-0.76Q3.44-1.76 1.88-3.40L1.88-3.40L3.04-5.68Q4.56-4.16 7.08-3.22Q9.60-2.28 12.28-2.28L12.28-2.28Q16.04-2.28 17.92-3.66Q19.80-5.04 19.80-7.24L19.80-7.24Q19.80-8.92 18.78-9.92Q17.76-10.92 16.28-11.46Q14.80-12 12.16-12.64L12.16-12.64Q9-13.44 7.12-14.18Q5.24-14.92 3.90-16.44Q2.56-17.96 2.56-20.56L2.56-20.56Q2.56-22.68 3.68-24.42Q4.80-26.16 7.12-27.20Q9.44-28.24 12.88-28.24L12.88-28.24Q15.28-28.24 17.58-27.58Q19.88-26.92 21.56-25.76L21.56-25.76L20.56-23.40Q18.80-24.56 16.80-25.14Q14.80-25.72 12.88-25.72L12.88-25.72Q9.20-25.72 7.34-24.30Q5.48-22.88 5.48-20.64L5.48-20.64Q5.48-18.96 6.50-17.94Q7.52-16.92 9.06-16.38Q10.60-15.84 13.20-15.20L13.20-15.20Q16.28-14.44 18.18-13.70Q20.08-12.96 21.40-11.46Q22.72-9.96 22.72-7.40L22.72-7.40Q22.72-5.28 21.58-3.54Q20.44-1.80 18.08-0.78Q15.72 0.24 12.28 0.24L12.28 0.24Z M39.92-21.20Q44.04-21.20 46.24-19.14Q48.44-17.08 48.44-13.04L48.44-13.04L48.44 0L45.72 0L45.72-3.28Q44.76-1.64 42.90-0.72Q41.04 0.20 38.48 0.20L38.48 0.20Q34.96 0.20 32.88-1.48Q30.80-3.16 30.80-5.92L30.80-5.92Q30.80-8.60 32.74-10.24Q34.68-11.88 38.92-11.88L38.92-11.88L45.60-11.88L45.60-13.16Q45.60-15.88 44.08-17.30Q42.56-18.72 39.64-18.72L39.64-18.72Q37.64-18.72 35.80-18.06Q33.96-17.40 32.64-16.24L32.64-16.24L31.36-18.36Q32.96-19.72 35.20-20.46Q37.44-21.20 39.92-21.20L39.92-21.20ZM38.92-2.04Q41.32-2.04 43.04-3.14Q44.76-4.24 45.60-6.32L45.60-6.32L45.60-9.76L39-9.76Q33.60-9.76 33.60-6L33.60-6Q33.60-4.16 35-3.10Q36.40-2.04 38.92-2.04L38.92-2.04Z M67.12-27.48Q65.28-27.48 64.34-26.48Q63.40-25.48 63.40-23.52L63.40-23.52L63.40-21.04L69.88-21.04L69.88-18.64L63.48-18.64L63.48 0L60.64 0L60.64-18.64L56.88-18.64L56.88-21.04L60.64-21.04L60.64-23.64Q60.64-26.52 62.30-28.20Q63.96-29.88 67-29.88L67-29.88Q68.20-29.88 69.32-29.54Q70.44-29.20 71.20-28.56L71.20-28.56L70.24-26.44Q69-27.48 67.12-27.48L67.12-27.48Z M95.72-10.52L95.68-9.64L78.08-9.64Q78.32-6.36 80.60-4.34Q82.88-2.32 86.36-2.32L86.36-2.32Q88.32-2.32 89.96-3.02Q91.60-3.72 92.80-5.08L92.80-5.08L94.40-3.24Q93-1.56 90.90-0.68Q88.80 0.20 86.28 0.20L86.28 0.20Q83.04 0.20 80.54-1.18Q78.04-2.56 76.64-5Q75.24-7.44 75.24-10.52L75.24-10.52Q75.24-13.60 76.58-16.04Q77.92-18.48 80.26-19.84Q82.60-21.20 85.52-21.20L85.52-21.20Q88.44-21.20 90.76-19.84Q93.08-18.48 94.40-16.06Q95.72-13.64 95.72-10.52L95.72-10.52ZM85.52-18.76Q82.48-18.76 80.42-16.82Q78.36-14.88 78.08-11.76L78.08-11.76L93-11.76Q92.72-14.88 90.66-16.82Q88.60-18.76 85.52-18.76L85.52-18.76Z M115.60-3.32L116.60-1.28Q115.80-0.56 114.62-0.18Q113.44 0.20 112.16 0.20L112.16 0.20Q109.20 0.20 107.60-1.40Q106-3 106-5.92L106-5.92L106-18.64L102.24-18.64L102.24-21.04L106-21.04L106-25.64L108.84-25.64L108.84-21.04L115.24-21.04L115.24-18.64L108.84-18.64L108.84-6.08Q108.84-4.20 109.78-3.22Q110.72-2.24 112.48-2.24L112.48-2.24Q113.36-2.24 114.18-2.52Q115-2.80 115.60-3.32L115.60-3.32Z M140.24-21.04L143.04-21.04L132.52 2.52Q131.24 5.48 129.56 6.72Q127.88 7.96 125.52 7.96L125.52 7.96Q124 7.96 122.68 7.48Q121.36 7 120.40 6.04L120.40 6.04L121.72 3.92Q123.32 5.52 125.56 5.52L125.56 5.52Q127 5.52 128.02 4.72Q129.04 3.92 129.92 2L129.92 2L130.84-0.04L121.44-21.04L124.40-21.04L132.32-3.16L140.24-21.04Z M173.84 0.24Q170.72 0.24 167.86-0.76Q165-1.76 163.44-3.40L163.44-3.40L164.60-5.68Q166.12-4.16 168.64-3.22Q171.16-2.28 173.84-2.28L173.84-2.28Q177.60-2.28 179.48-3.66Q181.36-5.04 181.36-7.24L181.36-7.24Q181.36-8.92 180.34-9.92Q179.32-10.92 177.84-11.46Q176.36-12 173.72-12.64L173.72-12.64Q170.56-13.44 168.68-14.18Q166.80-14.92 165.46-16.44Q164.12-17.96 164.12-20.56L164.12-20.56Q164.12-22.68 165.24-24.42Q166.36-26.16 168.68-27.20Q171-28.24 174.44-28.24L174.44-28.24Q176.84-28.24 179.14-27.58Q181.44-26.92 183.12-25.76L183.12-25.76L182.12-23.40Q180.36-24.56 178.36-25.14Q176.36-25.72 174.44-25.72L174.44-25.72Q170.76-25.72 168.90-24.30Q167.04-22.88 167.04-20.64L167.04-20.64Q167.04-18.96 168.06-17.94Q169.08-16.92 170.62-16.38Q172.16-15.84 174.76-15.20L174.76-15.20Q177.84-14.44 179.74-13.70Q181.64-12.96 182.96-11.46Q184.28-9.96 184.28-7.40L184.28-7.40Q184.28-5.28 183.14-3.54Q182-1.80 179.64-0.78Q177.28 0.24 173.84 0.24L173.84 0.24Z M204.20-3.32L205.20-1.28Q204.40-0.56 203.22-0.18Q202.04 0.20 200.76 0.20L200.76 0.20Q197.80 0.20 196.20-1.40Q194.60-3 194.60-5.92L194.60-5.92L194.60-18.64L190.84-18.64L190.84-21.04L194.60-21.04L194.60-25.64L197.44-25.64L197.44-21.04L203.84-21.04L203.84-18.64L197.44-18.64L197.44-6.08Q197.44-4.20 198.38-3.22Q199.32-2.24 201.08-2.24L201.08-2.24Q201.96-2.24 202.78-2.52Q203.60-2.80 204.20-3.32L204.20-3.32Z M221.72-21.20Q225.84-21.20 228.04-19.14Q230.24-17.08 230.24-13.04L230.24-13.04L230.24 0L227.52 0L227.52-3.28Q226.56-1.64 224.70-0.72Q222.84 0.20 220.28 0.20L220.28 0.20Q216.76 0.20 214.68-1.48Q212.60-3.16 212.60-5.92L212.60-5.92Q212.60-8.60 214.54-10.24Q216.48-11.88 220.72-11.88L220.72-11.88L227.40-11.88L227.40-13.16Q227.40-15.88 225.88-17.30Q224.36-18.72 221.44-18.72L221.44-18.72Q219.44-18.72 217.60-18.06Q215.76-17.40 214.44-16.24L214.44-16.24L213.16-18.36Q214.76-19.72 217-20.46Q219.24-21.20 221.72-21.20L221.72-21.20ZM220.72-2.04Q223.12-2.04 224.84-3.14Q226.56-4.24 227.40-6.32L227.40-6.32L227.40-9.76L220.80-9.76Q215.40-9.76 215.40-6L215.40-6Q215.40-4.16 216.80-3.10Q218.20-2.04 220.72-2.04L220.72-2.04Z M244.68-16.92Q245.68-19.04 247.66-20.12Q249.64-21.20 252.56-21.20L252.56-21.20L252.56-18.44L251.88-18.48Q248.56-18.48 246.68-16.44Q244.80-14.40 244.80-10.72L244.80-10.72L244.80 0L241.96 0L241.96-21.04L244.68-21.04L244.68-16.92Z M272.68-3.32L273.68-1.28Q272.88-0.56 271.70-0.18Q270.52 0.20 269.24 0.20L269.24 0.20Q266.28 0.20 264.68-1.40Q263.08-3 263.08-5.92L263.08-5.92L263.08-18.64L259.32-18.64L259.32-21.04L263.08-21.04L263.08-25.64L265.92-25.64L265.92-21.04L272.32-21.04L272.32-18.64L265.92-18.64L265.92-6.08Q265.92-4.20 266.86-3.22Q267.80-2.24 269.56-2.24L269.56-2.24Q270.44-2.24 271.26-2.52Q272.08-2.80 272.68-3.32L272.68-3.32Z M288.48 0.20Q285.92 0.20 283.58-0.54Q281.24-1.28 279.92-2.40L279.92-2.40L281.20-4.64Q282.52-3.60 284.52-2.94Q286.52-2.28 288.68-2.28L288.68-2.28Q291.56-2.28 292.94-3.18Q294.32-4.08 294.32-5.72L294.32-5.72Q294.32-6.88 293.56-7.54Q292.80-8.20 291.64-8.54Q290.48-8.88 288.56-9.20L288.56-9.20Q286-9.68 284.44-10.18Q282.88-10.68 281.78-11.88Q280.68-13.08 280.68-15.20L280.68-15.20Q280.68-17.84 282.88-19.52Q285.08-21.20 289-21.20L289-21.20Q291.04-21.20 293.08-20.66Q295.12-20.12 296.44-19.24L296.44-19.24L295.20-16.96Q292.60-18.76 289-18.76L289-18.76Q286.28-18.76 284.90-17.80Q283.52-16.84 283.52-15.28L283.52-15.28Q283.52-14.08 284.30-13.36Q285.08-12.64 286.24-12.30Q287.40-11.96 289.44-11.60L289.44-11.60Q291.96-11.12 293.48-10.64Q295-10.16 296.08-9Q297.16-7.84 297.16-5.80L297.16-5.80Q297.16-3.04 294.86-1.42Q292.56 0.20 288.48 0.20L288.48 0.20Z M341.96-28L344.88-28L344.88 0L341.96 0L341.96-12.92L324.44-12.92L324.44 0L321.48 0L321.48-28L324.44-28L324.44-15.52L341.96-15.52L341.96-28Z M375.76-10.52L375.72-9.64L358.12-9.64Q358.36-6.36 360.64-4.34Q362.92-2.32 366.40-2.32L366.40-2.32Q368.36-2.32 370-3.02Q371.64-3.72 372.84-5.08L372.84-5.08L374.44-3.24Q373.04-1.56 370.94-0.68Q368.84 0.20 366.32 0.20L366.32 0.20Q363.08 0.20 360.58-1.18Q358.08-2.56 356.68-5Q355.28-7.44 355.28-10.52L355.28-10.52Q355.28-13.60 356.62-16.04Q357.96-18.48 360.30-19.84Q362.64-21.20 365.56-21.20L365.56-21.20Q368.48-21.20 370.80-19.84Q373.12-18.48 374.44-16.06Q375.76-13.64 375.76-10.52L375.76-10.52ZM365.56-18.76Q362.52-18.76 360.46-16.82Q358.40-14.88 358.12-11.76L358.12-11.76L373.04-11.76Q372.76-14.88 370.70-16.82Q368.64-18.76 365.56-18.76L365.56-18.76Z M388.28-16.92Q389.28-19.04 391.26-20.12Q393.24-21.20 396.16-21.20L396.16-21.20L396.16-18.44L395.48-18.48Q392.16-18.48 390.28-16.44Q388.40-14.40 388.40-10.72L388.40-10.72L388.40 0L385.56 0L385.56-21.04L388.28-21.04L388.28-16.92Z M423.44-10.52L423.40-9.64L405.80-9.64Q406.04-6.36 408.32-4.34Q410.60-2.32 414.08-2.32L414.08-2.32Q416.04-2.32 417.68-3.02Q419.32-3.72 420.52-5.08L420.52-5.08L422.12-3.24Q420.72-1.56 418.62-0.68Q416.52 0.20 414.00 0.20L414.00 0.20Q410.76 0.20 408.26-1.18Q405.76-2.56 404.36-5Q402.96-7.44 402.96-10.52L402.96-10.52Q402.96-13.60 404.30-16.04Q405.64-18.48 407.98-19.84Q410.32-21.20 413.24-21.20L413.24-21.20Q416.16-21.20 418.48-19.84Q420.80-18.48 422.12-16.06Q423.44-13.64 423.44-10.52L423.44-10.52ZM413.24-18.76Q410.20-18.76 408.14-16.82Q406.08-14.88 405.80-11.76L405.80-11.76L420.72-11.76Q420.44-14.88 418.38-16.82Q416.32-18.76 413.24-18.76L413.24-18.76Z"/></g>
</svg>
</g><g opacity="1" transform="rotate(0 161.7561 180.9201)">
<svg width="387.5892" height="60" x="161.7561" y="180.9201" version="1.1" preserveAspectRatio="none" viewBox="2.0898 -28.5156 217.8321 37.6172">
  <g transform="matrix(1 0 0 1 0 0)" class="aD6z1nYkhcolor"><path id="id-D6z1nYkh13" d="M2.09-0.96L2.09-0.96Q2.13-1.41 2.23-1.97L2.23-1.97Q2.32-2.44 2.49-3.10Q2.66-3.75 2.99-4.51L2.99-4.51Q4.04-4.16 5.14-3.89L5.14-3.89Q6.07-3.65 7.19-3.46Q8.30-3.26 9.32-3.26L9.32-3.26Q10.86-3.26 11.90-3.50Q12.95-3.73 13.58-4.19Q14.22-4.65 14.49-5.34Q14.77-6.04 14.77-6.95L14.77-6.95Q14.77-7.99 14.48-8.71Q14.20-9.43 13.62-9.96Q13.05-10.49 12.15-10.86Q11.25-11.23 10.02-11.58L10.02-11.58Q7.87-12.17 6.39-12.86Q4.90-13.55 3.97-14.45Q3.05-15.35 2.64-16.49Q2.23-17.64 2.23-19.10L2.23-19.10Q2.23-21.21 2.88-22.71Q3.54-24.22 4.74-25.18Q5.94-26.13 7.65-26.58Q9.36-27.03 11.46-27.03L11.46-27.03Q13.09-27.03 14.31-26.78Q15.53-26.52 16.37-26.23L16.37-26.23Q17.34-25.88 18.07-25.43L18.07-25.43Q18.01-24.98 17.83-24.45L17.83-24.45Q17.68-24.00 17.40-23.40Q17.13-22.79 16.64-22.09L16.64-22.09Q16.05-22.48 15.27-22.79L15.27-22.79Q14.59-23.07 13.62-23.29Q12.66-23.52 11.39-23.52L11.39-23.52Q10-23.52 9.05-23.30Q8.11-23.09 7.50-22.63Q6.89-22.17 6.63-21.47Q6.37-20.78 6.37-19.82L6.37-19.82Q6.37-18.75 6.64-18.04Q6.91-17.32 7.52-16.83Q8.13-16.33 9.09-15.96Q10.06-15.59 11.43-15.20L11.43-15.20Q13.48-14.63 14.92-13.98Q16.37-13.34 17.28-12.48Q18.18-11.62 18.60-10.44Q19.02-9.26 19.02-7.60L19.02-7.60Q19.02-5.55 18.50-4.03Q17.97-2.52 16.82-1.50Q15.66-0.49 13.85 0.01Q12.03 0.51 9.47 0.51L9.47 0.51Q7.95 0.51 6.60 0.28Q5.25 0.06 4.26-0.21L4.26-0.21Q3.07-0.55 2.09-0.96Z M22.36-5.70L22.36-5.70Q22.36-7.32 22.83-8.46Q23.30-9.59 24.21-10.31Q25.12-11.04 26.42-11.40Q27.71-11.76 29.39-11.86L29.39-11.86L33.75-12.09L33.75-13.65Q33.75-14.71 33.56-15.39Q33.38-16.07 32.95-16.48Q32.52-16.89 31.81-17.06Q31.09-17.23 30.04-17.23L30.04-17.23Q28.98-17.23 28.04-16.99Q27.09-16.76 26.39-16.48L26.39-16.48Q25.55-16.15 24.84-15.74L24.84-15.74Q24.41-16.35 24.16-16.90Q23.91-17.46 23.77-17.91L23.77-17.91Q23.59-18.42 23.54-18.89L23.54-18.89Q24.47-19.36 25.55-19.71L25.55-19.71Q26.48-20.02 27.71-20.27Q28.93-20.53 30.27-20.53L30.27-20.53Q32.50-20.53 33.96-20.14Q35.43-19.75 36.30-18.96Q37.17-18.16 37.51-16.96Q37.85-15.76 37.85-14.12L37.85-14.12L37.85-3.22L39.49-1.23L39.49 0L35.88 0L34.38-1.74L33.67-1.74Q33.57-1.64 33.15-1.30Q32.73-0.96 32.08-0.58Q31.43-0.20 30.60 0.10Q29.77 0.39 28.83 0.39L28.83 0.39Q27.36 0.39 26.17-0.05Q24.98-0.49 24.13-1.30Q23.28-2.11 22.82-3.23Q22.36-4.36 22.36-5.70ZM26.62-6.05L26.62-6.05Q26.62-5.16 26.88-4.56Q27.13-3.96 27.59-3.61Q28.05-3.26 28.70-3.13Q29.36-2.99 30.16-2.99L30.16-2.99Q30.90-2.99 31.55-3.17Q32.21-3.36 32.70-3.59L32.70-3.59Q33.26-3.85 33.75-4.20L33.75-4.20L33.75-9.45L29.82-9.20Q28.91-9.14 28.29-8.89Q27.68-8.63 27.30-8.22Q26.93-7.81 26.78-7.26Q26.62-6.70 26.62-6.05Z M44.51 0L44.51-16.93L41.62-16.93Q41.56-17.40 41.54-17.81Q41.52-18.22 41.52-18.55L41.52-18.55Q41.52-19.16 41.58-19.55L41.58-19.55Q41.60-19.77 41.64-19.96L41.64-19.96L44.51-19.96L44.51-22.11Q44.51-23.34 44.89-24.50Q45.27-25.66 46.06-26.55Q46.86-27.44 48.07-27.98Q49.28-28.52 50.96-28.52L50.96-28.52Q51.78-28.52 52.38-28.44Q52.99-28.36 53.42-28.26L53.42-28.26Q53.93-28.14 54.28-28.01L54.28-28.01Q54.24-27.52 54.14-26.99L54.14-26.99Q54.04-26.54 53.86-25.97Q53.67-25.39 53.36-24.80L53.36-24.80Q53.07-24.88 52.71-24.96L52.71-24.96Q52.42-25.02 52.03-25.08Q51.64-25.14 51.25-25.14L51.25-25.14Q49.92-25.14 49.27-24.40Q48.61-23.67 48.61-21.99L48.61-21.99L48.61-19.96L53.01-19.96Q53.03-19.88 53.05-19.77L53.05-19.77Q53.07-19.67 53.09-19.52Q53.11-19.38 53.11-19.18L53.11-19.18Q53.11-18.79 53.00-18.22Q52.89-17.66 52.54-16.93L52.54-16.93L48.61-16.93L48.61 0L44.51 0Z M55.59-9.79L55.59-9.79Q55.59-12.60 56.27-14.63Q56.95-16.66 58.18-17.97Q59.41-19.28 61.12-19.89Q62.83-20.51 64.88-20.51L64.88-20.51Q66.78-20.51 68.27-19.87Q69.77-19.24 70.80-18.09Q71.84-16.93 72.38-15.33Q72.93-13.73 72.93-11.80L72.93-11.80Q72.93-11.13 72.87-10.57Q72.81-10 72.73-9.59L72.73-9.59Q72.66-9.10 72.56-8.71L72.56-8.71L59.75-8.77Q59.77-7.03 60.12-5.89Q60.47-4.75 61.16-4.08Q61.86-3.42 62.91-3.15Q63.96-2.89 65.41-2.89L65.41-2.89Q66.64-2.89 67.62-3.05Q68.59-3.20 69.28-3.42L69.28-3.42Q70.06-3.65 70.68-3.96L70.68-3.96Q70.98-3.28 71.14-2.70Q71.31-2.11 71.39-1.68L71.39-1.68Q71.46-1.17 71.50-0.78L71.50-0.78Q70.86-0.45 69.94-0.20L69.94-0.20Q69.16 0.02 68.03 0.21Q66.89 0.39 65.41 0.39L65.41 0.39Q63.07 0.39 61.24-0.14Q59.41-0.66 58.15-1.87Q56.89-3.07 56.24-5.01Q55.59-6.95 55.59-9.79ZM59.80-11.62L68.75-11.62L68.75-12.29Q68.75-13.52 68.45-14.46Q68.14-15.41 67.62-16.05Q67.09-16.70 66.37-17.03Q65.64-17.36 64.80-17.36L64.80-17.36Q63.57-17.36 62.64-17.04Q61.70-16.72 61.06-16.03Q60.43-15.33 60.12-14.24Q59.80-13.14 59.80-11.62L59.80-11.62Z M78.01-5.59L78.01-16.93L75.45-16.93Q75.43-17.15 75.41-17.40L75.41-17.40Q75.39-17.62 75.38-17.91Q75.37-18.20 75.37-18.55L75.37-18.55Q75.37-18.91 75.39-19.21Q75.41-19.51 75.45-19.96L75.45-19.96L78.01-19.96L78.01-23.07L80.25-25.61L81.99-25.61L81.99-19.96L87.52-19.96Q87.56-19.77 87.59-19.49Q87.62-19.22 87.62-18.96L87.62-18.96Q87.62-18.52 87.53-18.14Q87.44-17.77 87.34-17.50L87.34-17.50Q87.23-17.19 87.07-16.93L87.07-16.93L81.99-16.93L81.99-5.61Q81.99-4.18 82.47-3.54Q82.95-2.89 84.00-2.89L84.00-2.89Q84.45-2.89 84.95-3.00Q85.45-3.11 85.90-3.26L85.90-3.26Q86.41-3.44 86.93-3.65L86.93-3.65Q87.32-3.14 87.55-2.66Q87.77-2.17 87.87-1.78L87.87-1.78Q87.99-1.33 88.01-0.94L88.01-0.94Q87.46-0.57 86.78-0.27L86.78-0.27Q86.17-0.02 85.33 0.19Q84.49 0.39 83.40 0.39L83.40 0.39Q81.88 0.39 80.85 0.01Q79.82-0.37 79.19-1.12Q78.55-1.88 78.28-3.00Q78.01-4.12 78.01-5.59L78.01-5.59Z M95.45 0L89.45-19.96L93.85-19.96L97.66-5.37L98.50-1.46L99.36-5.37L103.28-19.96L107.81-19.96L98.93 9.10L94.69 9.10L97.95 0L95.45 0Z M126.45 0L118.67-26.52L123.22-26.52L128.55-7.62L129.75-2.64L130.96-7.62L136.39-26.52L140.90-26.52L132.99 0L126.45 0Z M145.31-23.34L145.31-23.34Q144.77-23.34 144.29-23.54Q143.81-23.73 143.45-24.06Q143.09-24.39 142.87-24.83Q142.66-25.27 142.66-25.78L142.66-25.78Q142.66-26.31 142.87-26.76Q143.09-27.21 143.45-27.54Q143.81-27.87 144.29-28.06Q144.77-28.24 145.31-28.24L145.31-28.24Q145.86-28.24 146.35-28.06Q146.84-27.87 147.20-27.54Q147.56-27.21 147.77-26.76Q147.99-26.31 147.99-25.78L147.99-25.78Q147.99-25.27 147.77-24.83Q147.56-24.39 147.20-24.06Q146.84-23.73 146.35-23.54Q145.86-23.34 145.31-23.34ZM143.07-3.36L143.07-19.96L147.13-19.96L147.13-3.28L148.28-2.46L148.28 0L147.17 0L147.13-0.04L147.13 0Q145.20 0 144.13-0.78Q143.07-1.56 143.07-3.36L143.07-3.36Z M152.17-0.90L152.17-0.90Q152.17-1.35 152.25-1.88L152.25-1.88Q152.30-2.32 152.43-2.90Q152.56-3.48 152.81-4.10L152.81-4.10Q153.67-3.77 154.61-3.52L154.61-3.52Q155.41-3.30 156.35-3.12Q157.29-2.93 158.20-2.93L158.20-2.93Q159.02-2.93 159.73-2.99Q160.43-3.05 160.95-3.31Q161.46-3.57 161.76-4.11Q162.05-4.65 162.05-5.61L162.05-5.61Q162.05-6.76 161.34-7.42Q160.63-8.09 158.87-8.42L158.87-8.42Q157.05-8.77 155.81-9.36Q154.57-9.94 153.80-10.71Q153.03-11.48 152.69-12.44Q152.34-13.40 152.34-14.49L152.34-14.49Q152.34-16.13 152.87-17.29Q153.40-18.44 154.40-19.15Q155.41-19.86 156.90-20.19Q158.40-20.51 160.33-20.51L160.33-20.51Q161.68-20.51 162.72-20.32Q163.77-20.14 164.47-19.92L164.47-19.92Q165.29-19.67 165.90-19.34L165.90-19.34Q165.84-18.91 165.68-18.40L165.68-18.40Q165.55-17.97 165.32-17.42Q165.10-16.88 164.73-16.31L164.73-16.31Q164.20-16.62 163.52-16.86L163.52-16.86Q162.93-17.07 162.11-17.24Q161.29-17.40 160.23-17.40L160.23-17.40Q159.41-17.40 158.72-17.32Q158.03-17.25 157.53-16.97Q157.03-16.70 156.76-16.14Q156.48-15.59 156.48-14.63L156.48-14.63Q156.48-14.16 156.61-13.78Q156.74-13.40 157.12-13.09Q157.50-12.77 158.19-12.51Q158.89-12.25 160.04-11.99L160.04-11.99Q161.84-11.60 163.04-11.09Q164.24-10.59 164.95-9.86Q165.66-9.14 165.97-8.17Q166.27-7.21 166.27-5.88L166.27-5.88Q166.27-4.45 165.82-3.30Q165.37-2.15 164.41-1.33Q163.46-0.51 161.95-0.06Q160.45 0.39 158.32 0.39L158.32 0.39Q156.95 0.39 155.83 0.20Q154.71 0 153.89-0.25L153.89-0.25Q152.93-0.53 152.17-0.90Z M173.28-23.34L173.28-23.34Q172.73-23.34 172.26-23.54Q171.78-23.73 171.42-24.06Q171.05-24.39 170.84-24.83Q170.63-25.27 170.63-25.78L170.63-25.78Q170.63-26.31 170.84-26.76Q171.05-27.21 171.42-27.54Q171.78-27.87 172.26-28.06Q172.73-28.24 173.28-28.24L173.28-28.24Q173.83-28.24 174.32-28.06Q174.80-27.87 175.17-27.54Q175.53-27.21 175.74-26.76Q175.96-26.31 175.96-25.78L175.96-25.78Q175.96-25.27 175.74-24.83Q175.53-24.39 175.17-24.06Q174.80-23.73 174.32-23.54Q173.83-23.34 173.28-23.34ZM171.04-3.36L171.04-19.96L175.10-19.96L175.10-3.28L176.25-2.46L176.25 0L175.14 0L175.10-0.04L175.10 0Q173.16 0 172.10-0.78Q171.04-1.56 171.04-3.36L171.04-3.36Z M179.94-9.98L179.94-9.98Q179.94-12.56 180.63-14.53Q181.33-16.50 182.59-17.83Q183.85-19.16 185.60-19.84Q187.34-20.53 189.45-20.53L189.45-20.53Q191.62-20.53 193.36-19.89Q195.10-19.26 196.31-17.97Q197.52-16.68 198.16-14.76Q198.81-12.83 198.81-10.25L198.81-10.25Q198.81-7.68 198.15-5.68Q197.50-3.69 196.28-2.34Q195.06-1.00 193.33-0.30Q191.60 0.39 189.45 0.39L189.45 0.39Q187.23 0.39 185.46-0.26Q183.69-0.92 182.47-2.22Q181.25-3.52 180.60-5.46Q179.94-7.40 179.94-9.98ZM189.45-2.83L189.45-2.83Q190.74-2.83 191.69-3.39Q192.64-3.95 193.24-4.93Q193.85-5.92 194.14-7.28Q194.43-8.63 194.43-10.25L194.43-10.25Q194.43-13.75 193.24-15.59Q192.05-17.42 189.45-17.42L189.45-17.42Q188.14-17.42 187.18-16.87Q186.21-16.31 185.58-15.31Q184.94-14.32 184.63-12.95Q184.32-11.58 184.32-9.98L184.32-9.98Q184.32-6.45 185.58-4.64Q186.84-2.83 189.45-2.83Z M203.26 0L203.26-16.39L201.72-17.97L201.72-20.18L205.31-20.18L206.99-18.65L207.56-18.77Q207.70-18.89 208.19-19.18Q208.69-19.47 209.42-19.77Q210.16-20.06 211.09-20.28Q212.03-20.51 213.07-20.51L213.07-20.51Q214.71-20.51 215.99-20.02Q217.27-19.53 218.14-18.62Q219.02-17.71 219.47-16.45Q219.92-15.18 219.92-13.59L219.92-13.59L219.92 0L215.72 0L215.72-13.18Q215.72-15.31 214.83-16.32Q213.95-17.32 212.01-17.32L212.01-17.32Q211.05-17.32 210.23-17.16Q209.41-16.99 208.79-16.78L208.79-16.78Q208.07-16.54 207.44-16.23L207.44-16.23L207.44 0L203.26 0Z"/></g>
</svg>
</g></svg></svg>